<?xml version="1.0" encoding="UTF-8" standalone="no"?>
<!-- Created with Inkscape (http://www.inkscape.org/) -->

<svg
   version="1.1"
   id="svg1"
   width="640"
   height="640"
   viewBox="0 0 640 640"
   sodipodi:docname="Luminaera,llc LOGO.svg"
   inkscape:version="1.4.2 (f4327f4, 2025-05-13)"
   xmlns:inkscape="http://www.inkscape.org/namespaces/inkscape"
   xmlns:sodipodi="http://sodipodi.sourceforge.net/DTD/sodipodi-0.dtd"
   xmlns="http://www.w3.org/2000/svg"
   xmlns:svg="http://www.w3.org/2000/svg">
  <defs
     id="defs1" />
  <sodipodi:namedview
     id="namedview1"
     pagecolor="#ffffff"
     bordercolor="#000000"
     borderopacity="0.25"
     inkscape:showpageshadow="2"
     inkscape:pageopacity="0.0"
     inkscape:pagecheckerboard="0"
     inkscape:deskcolor="#d1d1d1"
     inkscape:zoom="0.79589844"
     inkscape:cx="512"
     inkscape:cy="440.38282"
     inkscape:window-width="1920"
     inkscape:window-height="1017"
     inkscape:window-x="-8"
     inkscape:window-y="-8"
     inkscape:window-maximized="1"
     inkscape:current-layer="g1" />
  <g
     inkscape:groupmode="layer"
     inkscape:label="Image"
     id="g1">
    <path
       style="fill:#000000"
       d="m 131.91818,276.99843 c -3.43862,-3.43861 -3.96718,-9.11609 -1.22,-13.10441 0.93669,-1.35988 23.74248,-31.49751 50.67952,-66.97251 26.93704,-35.475 55.89273,-73.61659 64.34596,-84.75908 8.45324,-11.14249 16.46215,-20.974995 17.79757,-21.850005 8.06379,-5.2836 19.12169,3.41762 15.00388,11.806225 -2.64814,5.39465 -124.74888,165.75889 -132.10859,173.50831 -5.21245,5.48845 -9.93467,5.93515 -14.49834,1.37147 z"
       id="path23" />
    <path
       style="fill:#000000"
       d="m 342.4951,382.74312 c -2.10452,-1.17598 -5.93885,-4.82161 -5.07118,-4.82161 0.2787,0 0.12616,-1.0125 -0.33899,-2.25 -1.1657,-3.10133 1.1833,-7.41646 10.55627,-19.39194 24.05927,-30.7396 53.0566,-68.57209 122.65967,-160.03269 30.62793,-40.24605 56.87442,-74.10855 58.32554,-75.25 6.97462,-5.48623 17.55389,0.79341 15.92895,9.4551 -0.44255,2.35901 -9.64565,15.18492 -30.26558,42.17965 -16.29631,21.33443 -42.31031,55.43988 -57.8089,75.78988 -32.51487,42.6928 -71.59633,93.60739 -87.78387,114.3632 -6.16105,7.89975 -11.98704,15.54975 -12.94665,17 -0.9596,1.45024 -1.7471,2.27378 -1.75,1.8301 -0.003,-0.44369 -1.00539,-0.10619 -2.22777,0.75 -2.58656,1.81169 -6.43172,1.96849 -9.27749,0.37831 z"
       id="path22" />
    <path
       style="fill:#000000"
       d="m 234.64145,381.29989 c 4.2751,-5.82838 18.03603,-23.98331 56.75572,-74.87838 19.2476,-25.3 52.73108,-69.4 74.40772,-98 21.67665,-28.6 40.94467,-53.575 42.81782,-55.5 2.91197,-2.99258 4.06825,-3.5 7.97564,-3.5 3.76727,0 4.9938,0.49279 6.98333,2.80576 2.65628,3.08811 3.20355,8.34055 1.25137,12.00998 -1.07163,2.01428 -45.33532,60.77117 -71.32909,94.68426 -11.90634,15.53374 -27.30769,35.84872 -67.47343,89 -13.92353,18.425 -25.73531,33.77184 -26.2484,34.10409 -0.51308,0.33224 -5.93711,0.90802 -12.0534,1.2795 -6.11628,0.37147 -12.20511,0.94762 -13.53072,1.28033 l -2.4102,0.60492 z"
       id="path21" />
    <path
       style="fill:#000000"
       d="m 413.4951,397.91116 c -5.95749,-1.85579 -8.89095,-3.24669 -8.67741,-4.11437 0.33049,-1.34293 14.93115,-20.92374 23.11221,-30.99557 2.51086,-3.09116 13.5652,-17.41397 24.5652,-31.82847 57.26561,-75.04136 53.12246,-70.37975 60.56913,-68.14867 6.37186,1.90905 8.71375,8.73468 5.28278,15.39709 -0.90645,1.76019 -5.34635,7.92534 -9.86644,13.70034 -4.52009,5.775 -25.20267,32.55 -45.96129,59.5 -20.75861,26.95 -38.25622,49.06597 -38.88356,49.1466 -0.62734,0.0806 -5.19062,-1.115 -10.14062,-2.65695 z"
       id="path20" />
    <path
       style="fill:#000000"
       d="m 134.49031,400.50763 c -2.7865,-2.7865 -3.96902,-6.56217 -3.11765,-9.95431 0.32691,-1.30251 3.82302,-6.59001 7.76914,-11.75 3.94611,-5.16 19.78797,-26.03181 35.20413,-46.38181 15.41616,-20.35 37.30329,-49.15 48.63807,-64 29.83413,-39.08651 37.43915,-49.11786 90.97501,-120 26.58585,-35.2 49.70828,-65.462505 51.38317,-67.250005 2.53801,-2.70865 3.77495,-3.25 7.42601,-3.25 3.50856,0 4.96274,0.58198 7.30383,2.92308 3.27211,3.27211 3.71499,6.64486 1.44814,11.02846 -0.81122,1.56872 -13.29872,18.542625 -27.75,37.719775 -59.62932,79.12934 -75.4238,100.01842 -109.88475,145.32869 -19.86949,26.125 -41.55177,54.7 -48.18283,63.5 -26.14915,34.70221 -47.96838,62.56926 -49.72728,63.5106 -3.4372,1.83953 -8.89832,1.16219 -11.48499,-1.42448 z"
       id="path19" />
    <path
       style="fill:#000000"
       d="m 392.20767,429.4149 c -4.29194,-1.86476 -6.79508,-7.38365 -5.29745,-11.67975 0.86561,-2.48308 10.6097,-15.81364 11.55912,-15.81364 0.39179,0 17.62827,4.91934 19.30746,5.51041 0.82484,0.29034 -1.44462,4.00049 -6.36677,10.40851 -5.82839,7.58784 -8.57736,10.32903 -11.55194,11.51922 -2.1469,0.85902 -4.00686,1.54425 -4.13323,1.52272 -0.12637,-0.0215 -1.7091,-0.68189 -3.51719,-1.46747 z"
       id="path18" />
    <path
       style="fill:#000000"
       d="m 218.9951,550.87854 c -45.78303,-2.49024 -85.76358,-8.22464 -96.87902,-13.89531 -2.26654,-1.1563 -4.12098,-2.28091 -4.12098,-2.49914 0,-2.35388 4.96979,-10.72313 8.82014,-14.85334 9.01619,-9.6715 35.62978,-43.52423 78.66271,-100.05969 10.40344,-13.66774 19.83825,-25.19293 20.96625,-25.61152 2.17805,-0.80826 25.70568,-3.21658 26.23664,-2.68562 0.17227,0.17226 -14.42405,19.53054 -32.43626,43.01839 -40.78588,53.18462 -40.49948,52.78707 -40.49948,56.21641 0,3.54065 4.30158,7.41279 8.2349,7.41279 1.58036,0 9.99277,-1.5512 18.69424,-3.4471 28.64222,-6.24066 43.58813,-7.86372 72.32086,-7.8537 22.51494,0.008 27.5989,0.32301 43.42998,2.69237 21.44107,3.20897 29.01621,4.88769 50.07002,11.09596 20.67771,6.09737 31.84392,10.70157 39.08014,16.11403 9.27532,6.93765 10.64058,11.38441 5.16986,16.83864 -6.74089,6.72056 -27.95069,11.97612 -67.25,16.66383 -11.28128,1.34565 -109.62458,1.98847 -130.5,0.853 z"
       id="path17" />
    <path
       style="fill:#000000"
       d="m 313.4951,577.86969 c -25.89568,-1.03419 -44.2097,-2.62589 -58.42906,-5.07816 -11.80277,-2.0355 -18.47975,-4.24883 -10.07094,-3.33837 2.475,0.26798 15.075,0.91359 28,1.43469 61.19107,2.46706 145.63899,-5.72858 191.40252,-18.57554 23.06143,-6.47392 34.1697,-17.58319 26.25805,-26.26045 -6.48835,-7.11623 -23.27992,-13.13933 -46.47795,-16.67154 -2.37457,-0.36155 -4.11028,-0.86448 -3.85715,-1.11761 0.87172,-0.87172 31.1884,2.80847 39.17453,4.75545 22.433,5.46908 34.88695,11.12497 37.84944,17.1891 2.25306,4.61196 1.67689,7.47573 -2.44965,12.17561 -8.73497,9.94858 -31.02732,18.56426 -68.51759,26.4811 -36.38991,7.68447 -84.43449,10.94056 -132.8822,9.00572 z"
       id="path16" />
  </g>
</svg>
