<?xml version="1.0" encoding="UTF-8" standalone="no"?>
<!-- Created with Inkscape (http://www.inkscape.org/) -->

<svg
   version="1.1"
   id="svg1"
   width="640"
   height="640"
   viewBox="0 0 640 640"
   sodipodi:docname="AiChatJumper,Luminaera,llc LOGO_无文字.svg"
   inkscape:version="1.4.2 (f4327f4, 2025-05-13)"
   inkscape:export-filename="AiChatJumper,Luminaera,llc LOGO_500_500.png"
   inkscape:export-xdpi="84.379997"
   inkscape:export-ydpi="84.379997"
   xmlns:inkscape="http://www.inkscape.org/namespaces/inkscape"
   xmlns:sodipodi="http://sodipodi.sourceforge.net/DTD/sodipodi-0.dtd"
   xmlns="http://www.w3.org/2000/svg"
   xmlns:svg="http://www.w3.org/2000/svg">
  <defs
     id="defs1" />
  <sodipodi:namedview
     id="namedview1"
     pagecolor="#ffffff"
     bordercolor="#000000"
     borderopacity="0.25"
     inkscape:showpageshadow="2"
     inkscape:pageopacity="0.0"
     inkscape:pagecheckerboard="0"
     inkscape:deskcolor="#d1d1d1"
     inkscape:zoom="0.79589844"
     inkscape:cx="512.62822"
     inkscape:cy="386.35583"
     inkscape:window-width="1920"
     inkscape:window-height="1017"
     inkscape:window-x="-8"
     inkscape:window-y="-8"
     inkscape:window-maximized="1"
     inkscape:current-layer="g1">
    <inkscape:page
       x="0"
       y="0"
       width="640"
       height="640"
       id="page2"
       margin="0"
       bleed="0" />
  </sodipodi:namedview>
  <g
     inkscape:groupmode="layer"
     inkscape:label="Image"
     id="g1">
    <path
       style="fill:#000000;stroke-width:3;stroke-dasharray:none"
       d="m 125.63597,278.25484 c -3.25767,-3.25767 -3.85386,-7.79692 -1.58618,-12.07692 0.72852,-1.375 14.35752,-19.6 30.28668,-40.5 26.96734,-35.38276 69.81515,-91.85328 91.21088,-120.20978 5.06694,-6.715382 10.20214,-12.902886 11.41158,-13.750006 1.20943,-0.84712 3.93346,-1.54022 6.05339,-1.54022 5.17712,0 9.70057,4.32898 9.70057,9.283534 0,4.074692 -0.26792,4.483632 -19.56341,29.861092 -8.21513,10.80454 -22.726,29.97505 -32.24639,42.60114 -9.52039,12.62609 -25.88589,34.16101 -36.36779,47.85538 -47.07059,61.4967 -46.98558,61.39886 -53.34967,61.39886 -1.56974,0 -3.80274,-1.17615 -5.54966,-2.92308 z"
       id="path20" />
    <path
       style="fill:#000000;stroke-width:3;stroke-dasharray:none"
       d="m 334.38237,382.31261 c -1.98304,-1.57592 -3.35366,-3.11717 -3.04584,-3.425 0.30783,-0.30783 0.12103,-1.34353 -0.41511,-2.30156 -1.47303,-2.63215 1.90155,-8.16162 15.61527,-25.58666 23.79267,-30.23164 76.78903,-99.54397 155.07777,-202.82147 19.1965,-25.32378 21.73002,-28 26.50702,-28 4.26682,0 9.18972,3.89465 10.08705,7.98016 0.92351,4.20468 -0.9783,7.54712 -13.66699,24.01984 -12.95386,16.81696 -46.08324,60.18023 -79.83762,104.5 -56.06453,73.61318 -90.10019,117.69783 -94.62994,122.56933 -1.314,1.41314 -2.04529,2.91314 -1.62509,3.33334 0.4202,0.4202 0.314,0.65383 -0.236,0.51918 -0.55,-0.13465 -2.26679,0.27785 -3.8151,0.91667 -4.23818,1.74863 -6.06135,1.43847 -10.01542,-1.70383 z"
       id="path19" />
    <path
       style="fill:#000000;stroke-width:3;stroke-dasharray:none"
       d="m 226.72779,385.53491 c 0.008,-0.47135 23.44822,-31.68199 52.08893,-69.35699 63.95518,-84.12887 68.22679,-89.75322 94.17621,-124 29.2243,-38.56879 30.99111,-40.68101 34.71238,-41.49834 6.32288,-1.38873 12.00758,3.44804 12.00758,10.21655 0,3.66423 1.07039,2.16309 -41.62978,58.38263 -20.21822,26.61954 -55.83287,73.59916 -79.14367,104.39916 -23.3108,30.8 -43.1843,56.94265 -44.16333,58.09478 -1.54275,1.81551 -3.33596,2.1878 -13.45064,2.79251 -6.41881,0.38375 -12.33252,0.95175 -13.14157,1.26221 -0.80906,0.31046 -1.4643,0.17883 -1.45611,-0.29251 z"
       id="path18" />
    <path
       style="fill:#000000;stroke-width:3;stroke-dasharray:none"
       d="m 407.51479,399.28237 c -4.78396,-1.46703 -8.95401,-2.92323 -9.26679,-3.23601 -0.31278,-0.31277 4.95137,-7.75147 11.6981,-16.53044 6.74674,-8.77897 29.10396,-37.92557 49.68273,-64.77024 38.95326,-50.81389 40.08427,-52.05503 46.34528,-50.85816 3.65887,0.69944 7.73878,5.664 7.73878,9.41679 0,4.38922 -1.47418,6.70609 -17.17463,26.99218 -7.87895,10.18018 -28.72537,37.24525 -46.32537,60.14462 -17.6,22.89936 -32.45,41.60671 -33,41.57189 -0.55,-0.0348 -4.91415,-1.2636 -9.6981,-2.73063 z"
       id="path17" />
    <path
       style="fill:#000000;stroke-width:3;stroke-dasharray:none"
       d="m 129.60094,402.67828 c -3.23922,-1.76048 -5.27886,-6.44451 -4.44984,-10.21901 0.34502,-1.57088 25.35703,-35.38462 55.71125,-75.31605 69.6172,-91.58247 75.90829,-99.87979 157.28164,-207.43891 11.51211,-15.216676 21.84974,-28.310126 22.97251,-29.096546 3.56835,-2.49936 9.36354,-1.81655 12.67331,1.49323 3.43444,3.43444 3.77229,7.17208 1.05158,11.63364 -3.2098,5.263604 -66.22982,88.759966 -187.13856,247.943286 -42.1293,55.46564 -44.72974,58.7712 -47.78706,60.74474 -3.24183,2.09263 -6.77375,2.18016 -10.31483,0.25562 z"
       id="path16" />
    <path
       style="fill:#000000;stroke-width:3;stroke-dasharray:none"
       d="m 383.16514,428.5319 c -2.35909,-2.5455 -2.97511,-4.63808 -2.58881,-8.79403 0.0992,-1.06703 2.67255,-5.25127 5.71859,-9.2983 3.93139,-5.22333 6.02855,-7.21938 7.22811,-6.87963 0.92942,0.26325 5.40236,1.51733 9.93986,2.78687 4.5375,1.26953 8.25,2.68217 8.25,3.13919 0,1.32086 -12.86993,17.44444 -15.70311,19.67302 -3.8163,3.00191 -9.74985,2.71221 -12.84464,-0.62712 z"
       id="path15" />
    <path
       style="fill:#000000;stroke-width:3;stroke-dasharray:none"
       d="m 224.21289,552.50372 c -30.1514,-1.21674 -64.52893,-4.4806 -83.5,-7.92761 -16.74934,-3.04333 -22.95658,-4.78959 -26.25918,-7.38742 -2.5419,-1.99946 -2.5544,-2.07577 -0.99151,-6.05449 0.87056,-2.21623 4.12254,-6.82553 7.22662,-10.24289 10.35781,-11.40318 33.76825,-41.14662 75.89906,-96.43131 19.57899,-25.69184 22.64981,-29.28215 25.44556,-29.75007 4.86826,-0.8148 23.96285,-2.58194 24.29626,-2.24854 0.16212,0.16213 -15.42878,20.75217 -34.64646,45.75565 -19.21768,25.00349 -35.88201,47.19755 -37.03185,49.32014 -1.75207,3.23428 -1.90542,4.30639 -0.94697,6.62028 2.21594,5.34976 7.20656,6.11496 20.21974,3.10024 26.74964,-6.197 40.49388,-8.1147 64.78873,-9.0398 19.22077,-0.73189 42.09706,-0.0504 50.36318,1.50033 l 3.63682,0.68227 v -16.57955 -16.57956 l -11.75,-0.28173 -11.75,-0.28174 v -4.5 -4.5 l 11.75,-0.28174 11.75,-0.28173 v -5.96827 -5.96826 h -5 c -4.66667,0 -5,0.16667 -5,2.5 0,1.375 -0.47875,2.5 -1.06388,2.5 -1.51468,0 -31.27175,-10.15606 -32.23942,-11.00328 -0.93118,-0.81528 31.3379,-12.09337 32.51691,-11.3647 0.43251,0.26731 0.78639,1.58446 0.78639,2.927 v 2.44098 h 17.0499 17.04991 l -0.29991,5.75 -0.2999,5.75 -9,0.5 -9,0.5 v 5.5 5.5 l 9.25,0.28753 c 8.7342,0.27149 9.25,0.1739 9.25,-1.75 0,-1.24993 0.65624,-2.03753 1.69771,-2.03753 3.13996,0 43.30229,8.40278 43.30229,9.05973 0,0.66154 -40.05499,8.9419 -43.25,8.94085 -1.08314,-3.6e-4 -1.75,-0.7627 -1.75,-2.00058 0,-1.85185 -0.66667,-2 -9,-2 h -9 v 16.90965 16.90965 l 7.25,1.17085 c 27.32216,4.41242 64.18914,15.94957 76.77516,24.026 21.35257,13.7019 11.4292,23.58251 -31.02516,30.89149 -28.45118,4.89817 -49.02816,6.11555 -99.5,5.88661 -22.55,-0.10228 -44.15,-0.31309 -48,-0.46845 z"
       id="path14" />
    <path
       style="fill:#000000;stroke-width:3;stroke-dasharray:none"
       d="m 312.75074,579.11402 c -14.00419,-0.44305 -31.10419,-1.29891 -38,-1.9019 -14.49711,-1.26768 -36.84732,-4.82339 -39.03785,-6.21056 -1.10475,-0.69959 -0.84125,-0.81457 1,-0.43637 10.36312,2.12865 73.94636,2.49193 103,0.58849 51.65415,-3.38411 106.24775,-12.26181 128.73648,-20.93438 12.6376,-4.87357 20.63989,-13.29104 18.35323,-19.30543 -1.31165,-3.44989 -7.68201,-8.66571 -13.99243,-11.45647 -6.45266,-2.85367 -20.53863,-6.63859 -30.91258,-8.30625 -12.67957,-2.03829 -7.20198,-2.03385 10.39022,0.008 30.67966,3.56159 54.80276,11.97244 58.85994,20.52232 3.48462,7.3433 -1.8965,14.19495 -17.16633,21.85746 -18.36028,9.21333 -54.45194,18.19987 -88.76853,22.10266 -32.35365,3.67956 -56.8393,4.599 -92.46215,3.47201 z"
       id="path13" />
  </g>
</svg>
